<?xml version="1.0" encoding="utf-8"?>
<!-- Svg Vector Icons : http://www.onlinewebfonts.com/icon -->
<!DOCTYPE svg PUBLIC "-//W3C//DTD SVG 1.1//EN" "http://www.w3.org/Graphics/SVG/1.1/DTD/svg11.dtd">
<svg version="1.1" xmlns="http://www.w3.org/2000/svg" xmlns:xlink="http://www.w3.org/1999/xlink" x="0px" y="0px" viewBox="0 0 256 256" enable-background="new 0 0 256 256" xml:space="preserve">
<metadata> Svg Vector Icons : http://www.onlinewebfonts.com/icon </metadata>
<g> <path fill="#ffffff" d="M92.7,155.3v41.3l99.4,34.3v-41.3"/> <path fill="#f5b226" d="M192.1,237.6H190l-99.4-34.3c-2.7-0.9-4.5-3.4-4.5-6.2v-41.7h13.2V192l86.1,29.7v-32.1h13.2V231 C198.7,234.6,195.7,237.6,192.1,237.6L192.1,237.6z"/> <path fill="#1a3a94" d="M60.7,84.2h13.2v38.7H60.7V84.2z"/> <path fill="#1a3a94" d="M239.4,212.6h-2.1L67.7,154.3c-5.1,2.1-10.5,3.2-16,3.2c-23,0-41.7-18.7-41.7-41.7 c0-23,18.7-41.7,41.7-41.7c5.5,0,11,1.1,16,3.2l169.6-58.6c2-0.7,4.2-0.3,6,0.9c1.8,1.3,2.8,3.3,2.8,5.4v180.8 C246,209.6,243,212.6,239.4,212.6z M67.2,140h2.1l163.5,56.7V33.9L69.4,90.3c-1.6,0.7-3.5,0.7-5.2,0c-14-7-31-1.2-38,12.8 c-7,14-1.2,31,12.8,38c8,4,17.3,3.9,25.3-0.1c0.9-0.6,1.9-0.9,2.9-1.1H67.2z"/></g>
</svg>