<?xml version="1.0" encoding="utf-8"?>
<!-- Svg Vector Icons : http://www.onlinewebfonts.com/icon -->
<!DOCTYPE svg PUBLIC "-//W3C//DTD SVG 1.1//EN" "http://www.w3.org/Graphics/SVG/1.1/DTD/svg11.dtd">
<svg version="1.1" xmlns="http://www.w3.org/2000/svg" xmlns:xlink="http://www.w3.org/1999/xlink" x="0px" y="0px" viewBox="0 0 256 256" enable-background="new 0 0 256 256" xml:space="preserve">
<metadata> Svg Vector Icons : http://www.onlinewebfonts.com/icon </metadata>
<g> <path fill="#a5c0e4" d="M209.1,28.3h-13c1.3,2.2,1.9,4.8,1.9,7.3v14.8c0.1,7.9-6.2,14.5-14.2,14.7h-119c-8-0.2-14.4-6.7-14.4-14.7 V35.6c0-2.6,0.7-5.1,2-7.3h-13c-16.3,0-29.5,13.2-29.6,29.5v147.6c0.2,16.2,13.3,29.3,29.6,29.3h99.7c-20.1-30.7-11.6-71.9,19.1-92 c25-16.4,58-14.1,80.4,5.8V57.8C238.7,41.4,225.4,28.3,209.1,28.3C209.1,28.3,209.1,28.3,209.1,28.3z M121.1,176.4H50.5v-22.9h70.6 V176.4z M154.6,126.9h-104v-23h104V126.9z"/> <path fill="#5183c3" d="M97.4,50.6h59c8.2,0,14.8-6.6,14.8-14.7V21.2c0-8.1-6.6-14.7-14.7-14.7c0,0-0.1,0-0.1,0h-59 c-8.1-0.1-14.8,6.5-14.8,14.6c0,0,0,0.1,0,0.1v14.7C82.6,44,89.2,50.6,97.4,50.6z M194.4,146.3c-28.5,0-51.6,23.1-51.6,51.6 s23.1,51.6,51.6,51.6c28.5,0,51.6-23.1,51.6-51.5c0.1-28.5-22.9-51.6-51.3-51.7C194.6,146.3,194.5,146.3,194.4,146.3z M223.9,212.7 h-44.2v-41.1h14.7v24.7h29.5V212.7z"/></g>
</svg>