<?xml version="1.0" encoding="utf-8"?>
<!-- Svg Vector Icons : http://www.onlinewebfonts.com/icon -->
<!DOCTYPE svg PUBLIC "-//W3C//DTD SVG 1.1//EN" "http://www.w3.org/Graphics/SVG/1.1/DTD/svg11.dtd">
<svg version="1.1" xmlns="http://www.w3.org/2000/svg" xmlns:xlink="http://www.w3.org/1999/xlink" x="0px" y="0px" viewBox="0 0 256 256" enable-background="new 0 0 256 256" xml:space="preserve">
<metadata> Svg Vector Icons : http://www.onlinewebfonts.com/icon </metadata>
<g><g><g><path fill="#000000" d="M111.3,10.9c-5,1.8-9.3,7.1-10.1,12.4l-0.4,2.5l-15.2,0.2c-13.7,0.2-15.5,0.4-18.5,1.5c-6.5,2.4-12.5,7.7-15.8,13.7c-3.8,7.1-3.6,2.7-3.6,94.6c0,58.8,0.2,84.5,0.6,86.7c1.7,7.8,7.8,16.2,14.6,19.8c7.1,3.8,5,3.7,64.5,3.7c34.3,0,55.2-0.2,57.2-0.6c9.7-1.8,18.1-9.3,21.9-19.2l1.4-3.5l0.2-85.1c0.2-93.8,0.3-89.1-3.5-96.3c-3.2-6-9.3-11.3-15.8-13.7c-3.1-1.1-4.8-1.3-18.5-1.5l-15.2-0.2l-0.4-2.5c-0.9-5.5-5.7-11.3-10.8-12.7C140.7,9.7,114.1,9.9,111.3,10.9z M142.4,20.1c2.4,1.1,3.3,3.9,3.3,9.9v5.3l19.6,0.2c19.2,0.2,19.6,0.2,22.1,1.5c3.9,2.1,7.4,5.6,9.3,9.4l1.7,3.4v85.8v85.8l-1.5,3.3c-2.1,4.5-5.3,7.8-9.3,9.8l-3.4,1.7H128H71.7l-3.4-1.7c-4-1.9-7.1-5.3-9.3-9.8l-1.5-3.3v-85.8V49.8l1.8-3.4c2.1-4.3,6.4-8.3,10.7-9.8c3-1.2,4.5-1.2,21.8-1.2h18.6V30c0-5.9,0.9-8.8,3.1-9.9C115.3,19.3,140.5,19.2,142.4,20.1z"/><path fill="#000000" d="M71.4,78.4v21.2h21.2h21.2V78.4V57.2H92.6H71.4V78.4z M104.4,78.4v11.8H92.6H80.8V78.4V66.6h11.8h11.8V78.4z"/><path fill="#000000" d="M128,76.1v4.7h26h26v-4.7v-4.7h-26h-26L128,76.1L128,76.1z"/><path fill="#000000" d="M71.4,135.1v21.2h21.2h21.2v-21.2v-21.2H92.6H71.4V135.1z M104.4,135.1v11.8H92.6H80.8v-11.8v-11.8h11.8h11.8V135.1z"/><path fill="#000000" d="M128,132.7v4.7h26h26v-4.7V128h-26h-26L128,132.7L128,132.7z"/><path fill="#000000" d="M71.4,191.7V213h21.2h21.2v-21.2v-21.2H92.6H71.4V191.7z M104.4,191.7v11.8H92.6H80.8v-11.8v-11.8h11.8h11.8V191.7z"/><path fill="#000000" d="M128,189.4v4.7h26h26v-4.7v-4.7h-26h-26L128,189.4L128,189.4z"/></g></g></g>
</svg>